<mxfile host="app.diagrams.net" modified="2021-12-22T13:06:29.033Z" agent="5.0 (Macintosh; Intel Mac OS X 10_15_7) AppleWebKit/537.36 (KHTML, like Gecko) Chrome/96.0.4664.110 Safari/537.36" etag="h9UQ7IoFpDsbZBo8Bkgb" version="16.0.0" type="github">
  <diagram id="cAgiICxd90Paq4oeNoIX" name="第 1 页">
    <mxGraphModel dx="1042" dy="561" grid="1" gridSize="10" guides="1" tooltips="1" connect="1" arrows="1" fold="1" page="1" pageScale="1" pageWidth="827" pageHeight="1169" background="#ffffff" math="0" shadow="0">
      <root>
        <mxCell id="0" />
        <mxCell id="1" parent="0" />
        <mxCell id="1nDgUb3ths3vOn3KUX48-11" value="" style="ellipse;whiteSpace=wrap;html=1;aspect=fixed;" parent="1" vertex="1">
          <mxGeometry x="240" y="400" width="160" height="160" as="geometry" />
        </mxCell>
        <mxCell id="1nDgUb3ths3vOn3KUX48-12" value="" style="ellipse;whiteSpace=wrap;html=1;aspect=fixed;" parent="1" vertex="1">
          <mxGeometry x="240" y="400" width="40" height="40" as="geometry" />
        </mxCell>
        <mxCell id="1nDgUb3ths3vOn3KUX48-13" value="" style="ellipse;whiteSpace=wrap;html=1;aspect=fixed;" parent="1" vertex="1">
          <mxGeometry x="300" y="380" width="40" height="40" as="geometry" />
        </mxCell>
        <mxCell id="1nDgUb3ths3vOn3KUX48-14" value="" style="ellipse;whiteSpace=wrap;html=1;aspect=fixed;fillColor=#dae8fc;strokeColor=#6c8ebf;" parent="1" vertex="1">
          <mxGeometry x="360" y="400" width="40" height="40" as="geometry" />
        </mxCell>
        <mxCell id="1nDgUb3ths3vOn3KUX48-15" value="" style="ellipse;whiteSpace=wrap;html=1;aspect=fixed;" parent="1" vertex="1">
          <mxGeometry x="360" y="520" width="40" height="40" as="geometry" />
        </mxCell>
        <mxCell id="1nDgUb3ths3vOn3KUX48-16" value="" style="ellipse;whiteSpace=wrap;html=1;aspect=fixed;" parent="1" vertex="1">
          <mxGeometry x="300" y="540" width="40" height="40" as="geometry" />
        </mxCell>
        <mxCell id="1nDgUb3ths3vOn3KUX48-17" value="" style="ellipse;whiteSpace=wrap;html=1;aspect=fixed;" parent="1" vertex="1">
          <mxGeometry x="240" y="520" width="40" height="40" as="geometry" />
        </mxCell>
        <mxCell id="1nDgUb3ths3vOn3KUX48-18" value="" style="ellipse;whiteSpace=wrap;html=1;aspect=fixed;fillColor=#f8cecc;strokeColor=#b85450;" parent="1" vertex="1">
          <mxGeometry x="380" y="460" width="40" height="40" as="geometry" />
        </mxCell>
        <mxCell id="1nDgUb3ths3vOn3KUX48-19" value="" style="ellipse;whiteSpace=wrap;html=1;aspect=fixed;" parent="1" vertex="1">
          <mxGeometry x="220" y="460" width="40" height="40" as="geometry" />
        </mxCell>
        <mxCell id="1nDgUb3ths3vOn3KUX48-20" value="" style="ellipse;whiteSpace=wrap;html=1;aspect=fixed;" parent="1" vertex="1">
          <mxGeometry x="460" y="400" width="160" height="160" as="geometry" />
        </mxCell>
        <mxCell id="1nDgUb3ths3vOn3KUX48-21" value="" style="ellipse;whiteSpace=wrap;html=1;aspect=fixed;" parent="1" vertex="1">
          <mxGeometry x="460" y="400" width="40" height="40" as="geometry" />
        </mxCell>
        <mxCell id="1nDgUb3ths3vOn3KUX48-22" value="" style="ellipse;whiteSpace=wrap;html=1;aspect=fixed;" parent="1" vertex="1">
          <mxGeometry x="520" y="380" width="40" height="40" as="geometry" />
        </mxCell>
        <mxCell id="1nDgUb3ths3vOn3KUX48-23" value="" style="ellipse;whiteSpace=wrap;html=1;aspect=fixed;" parent="1" vertex="1">
          <mxGeometry x="580" y="400" width="40" height="40" as="geometry" />
        </mxCell>
        <mxCell id="1nDgUb3ths3vOn3KUX48-24" value="" style="ellipse;whiteSpace=wrap;html=1;aspect=fixed;" parent="1" vertex="1">
          <mxGeometry x="580" y="520" width="40" height="40" as="geometry" />
        </mxCell>
        <mxCell id="1nDgUb3ths3vOn3KUX48-25" value="" style="ellipse;whiteSpace=wrap;html=1;aspect=fixed;fillColor=#f8cecc;strokeColor=#b85450;" parent="1" vertex="1">
          <mxGeometry x="520" y="540" width="40" height="40" as="geometry" />
        </mxCell>
        <mxCell id="1nDgUb3ths3vOn3KUX48-26" value="" style="ellipse;whiteSpace=wrap;html=1;aspect=fixed;" parent="1" vertex="1">
          <mxGeometry x="460" y="520" width="40" height="40" as="geometry" />
        </mxCell>
        <mxCell id="1nDgUb3ths3vOn3KUX48-27" value="" style="ellipse;whiteSpace=wrap;html=1;aspect=fixed;fillColor=#dae8fc;strokeColor=#6c8ebf;" parent="1" vertex="1">
          <mxGeometry x="600" y="460" width="40" height="40" as="geometry" />
        </mxCell>
        <mxCell id="1nDgUb3ths3vOn3KUX48-28" value="" style="ellipse;whiteSpace=wrap;html=1;aspect=fixed;" parent="1" vertex="1">
          <mxGeometry x="440" y="460" width="40" height="40" as="geometry" />
        </mxCell>
        <mxCell id="1nDgUb3ths3vOn3KUX48-29" value="" style="ellipse;whiteSpace=wrap;html=1;aspect=fixed;" parent="1" vertex="1">
          <mxGeometry x="680" y="400" width="160" height="160" as="geometry" />
        </mxCell>
        <mxCell id="1nDgUb3ths3vOn3KUX48-30" value="" style="ellipse;whiteSpace=wrap;html=1;aspect=fixed;" parent="1" vertex="1">
          <mxGeometry x="680" y="400" width="40" height="40" as="geometry" />
        </mxCell>
        <mxCell id="1nDgUb3ths3vOn3KUX48-31" value="" style="ellipse;whiteSpace=wrap;html=1;aspect=fixed;" parent="1" vertex="1">
          <mxGeometry x="740" y="380" width="40" height="40" as="geometry" />
        </mxCell>
        <mxCell id="1nDgUb3ths3vOn3KUX48-32" value="" style="ellipse;whiteSpace=wrap;html=1;aspect=fixed;" parent="1" vertex="1">
          <mxGeometry x="800" y="400" width="40" height="40" as="geometry" />
        </mxCell>
        <mxCell id="1nDgUb3ths3vOn3KUX48-33" value="" style="ellipse;whiteSpace=wrap;html=1;aspect=fixed;fillColor=#dae8fc;strokeColor=#6c8ebf;" parent="1" vertex="1">
          <mxGeometry x="800" y="520" width="40" height="40" as="geometry" />
        </mxCell>
        <mxCell id="1nDgUb3ths3vOn3KUX48-34" value="" style="ellipse;whiteSpace=wrap;html=1;aspect=fixed;" parent="1" vertex="1">
          <mxGeometry x="740" y="540" width="40" height="40" as="geometry" />
        </mxCell>
        <mxCell id="1nDgUb3ths3vOn3KUX48-35" value="" style="ellipse;whiteSpace=wrap;html=1;aspect=fixed;" parent="1" vertex="1">
          <mxGeometry x="680" y="520" width="40" height="40" as="geometry" />
        </mxCell>
        <mxCell id="1nDgUb3ths3vOn3KUX48-36" value="" style="ellipse;whiteSpace=wrap;html=1;aspect=fixed;" parent="1" vertex="1">
          <mxGeometry x="820" y="460" width="40" height="40" as="geometry" />
        </mxCell>
        <mxCell id="1nDgUb3ths3vOn3KUX48-37" value="" style="ellipse;whiteSpace=wrap;html=1;aspect=fixed;fillColor=#f8cecc;strokeColor=#b85450;" parent="1" vertex="1">
          <mxGeometry x="660" y="460" width="40" height="40" as="geometry" />
        </mxCell>
        <mxCell id="1nDgUb3ths3vOn3KUX48-38" value="" style="ellipse;whiteSpace=wrap;html=1;aspect=fixed;" parent="1" vertex="1">
          <mxGeometry x="900" y="400" width="160" height="160" as="geometry" />
        </mxCell>
        <mxCell id="1nDgUb3ths3vOn3KUX48-39" value="" style="ellipse;whiteSpace=wrap;html=1;aspect=fixed;" parent="1" vertex="1">
          <mxGeometry x="900" y="400" width="40" height="40" as="geometry" />
        </mxCell>
        <mxCell id="1nDgUb3ths3vOn3KUX48-40" value="" style="ellipse;whiteSpace=wrap;html=1;aspect=fixed;fillColor=#f8cecc;strokeColor=#b85450;" parent="1" vertex="1">
          <mxGeometry x="960" y="380" width="40" height="40" as="geometry" />
        </mxCell>
        <mxCell id="1nDgUb3ths3vOn3KUX48-41" value="" style="ellipse;whiteSpace=wrap;html=1;aspect=fixed;" parent="1" vertex="1">
          <mxGeometry x="1020" y="400" width="40" height="40" as="geometry" />
        </mxCell>
        <mxCell id="1nDgUb3ths3vOn3KUX48-42" value="" style="ellipse;whiteSpace=wrap;html=1;aspect=fixed;" parent="1" vertex="1">
          <mxGeometry x="1020" y="520" width="40" height="40" as="geometry" />
        </mxCell>
        <mxCell id="1nDgUb3ths3vOn3KUX48-43" value="" style="ellipse;whiteSpace=wrap;html=1;aspect=fixed;fillColor=#dae8fc;strokeColor=#6c8ebf;" parent="1" vertex="1">
          <mxGeometry x="960" y="540" width="40" height="40" as="geometry" />
        </mxCell>
        <mxCell id="1nDgUb3ths3vOn3KUX48-44" value="" style="ellipse;whiteSpace=wrap;html=1;aspect=fixed;" parent="1" vertex="1">
          <mxGeometry x="900" y="520" width="40" height="40" as="geometry" />
        </mxCell>
        <mxCell id="1nDgUb3ths3vOn3KUX48-45" value="" style="ellipse;whiteSpace=wrap;html=1;aspect=fixed;" parent="1" vertex="1">
          <mxGeometry x="1040" y="460" width="40" height="40" as="geometry" />
        </mxCell>
        <mxCell id="1nDgUb3ths3vOn3KUX48-46" value="" style="ellipse;whiteSpace=wrap;html=1;aspect=fixed;" parent="1" vertex="1">
          <mxGeometry x="880" y="460" width="40" height="40" as="geometry" />
        </mxCell>
        <mxCell id="1nDgUb3ths3vOn3KUX48-47" value="" style="ellipse;whiteSpace=wrap;html=1;aspect=fixed;" parent="1" vertex="1">
          <mxGeometry x="240" y="640" width="160" height="160" as="geometry" />
        </mxCell>
        <mxCell id="1nDgUb3ths3vOn3KUX48-48" value="" style="ellipse;whiteSpace=wrap;html=1;aspect=fixed;" parent="1" vertex="1">
          <mxGeometry x="240" y="640" width="40" height="40" as="geometry" />
        </mxCell>
        <mxCell id="1nDgUb3ths3vOn3KUX48-49" value="" style="ellipse;whiteSpace=wrap;html=1;aspect=fixed;" parent="1" vertex="1">
          <mxGeometry x="300" y="620" width="40" height="40" as="geometry" />
        </mxCell>
        <mxCell id="1nDgUb3ths3vOn3KUX48-50" value="" style="ellipse;whiteSpace=wrap;html=1;aspect=fixed;" parent="1" vertex="1">
          <mxGeometry x="360" y="640" width="40" height="40" as="geometry" />
        </mxCell>
        <mxCell id="1nDgUb3ths3vOn3KUX48-51" value="" style="ellipse;whiteSpace=wrap;html=1;aspect=fixed;" parent="1" vertex="1">
          <mxGeometry x="360" y="760" width="40" height="40" as="geometry" />
        </mxCell>
        <mxCell id="1nDgUb3ths3vOn3KUX48-52" value="" style="ellipse;whiteSpace=wrap;html=1;aspect=fixed;" parent="1" vertex="1">
          <mxGeometry x="300" y="780" width="40" height="40" as="geometry" />
        </mxCell>
        <mxCell id="1nDgUb3ths3vOn3KUX48-53" value="" style="ellipse;whiteSpace=wrap;html=1;aspect=fixed;fillColor=#dae8fc;strokeColor=#6c8ebf;" parent="1" vertex="1">
          <mxGeometry x="240" y="760" width="40" height="40" as="geometry" />
        </mxCell>
        <mxCell id="1nDgUb3ths3vOn3KUX48-54" value="" style="ellipse;whiteSpace=wrap;html=1;aspect=fixed;fillColor=#f8cecc;strokeColor=#b85450;" parent="1" vertex="1">
          <mxGeometry x="380" y="700" width="40" height="40" as="geometry" />
        </mxCell>
        <mxCell id="1nDgUb3ths3vOn3KUX48-55" value="" style="ellipse;whiteSpace=wrap;html=1;aspect=fixed;" parent="1" vertex="1">
          <mxGeometry x="220" y="700" width="40" height="40" as="geometry" />
        </mxCell>
        <mxCell id="1nDgUb3ths3vOn3KUX48-56" value="" style="ellipse;whiteSpace=wrap;html=1;aspect=fixed;" parent="1" vertex="1">
          <mxGeometry x="460" y="640" width="160" height="160" as="geometry" />
        </mxCell>
        <mxCell id="1nDgUb3ths3vOn3KUX48-57" value="" style="ellipse;whiteSpace=wrap;html=1;aspect=fixed;" parent="1" vertex="1">
          <mxGeometry x="460" y="640" width="40" height="40" as="geometry" />
        </mxCell>
        <mxCell id="1nDgUb3ths3vOn3KUX48-58" value="" style="ellipse;whiteSpace=wrap;html=1;aspect=fixed;" parent="1" vertex="1">
          <mxGeometry x="520" y="620" width="40" height="40" as="geometry" />
        </mxCell>
        <mxCell id="1nDgUb3ths3vOn3KUX48-59" value="" style="ellipse;whiteSpace=wrap;html=1;aspect=fixed;" parent="1" vertex="1">
          <mxGeometry x="580" y="640" width="40" height="40" as="geometry" />
        </mxCell>
        <mxCell id="1nDgUb3ths3vOn3KUX48-60" value="" style="ellipse;whiteSpace=wrap;html=1;aspect=fixed;" parent="1" vertex="1">
          <mxGeometry x="580" y="760" width="40" height="40" as="geometry" />
        </mxCell>
        <mxCell id="1nDgUb3ths3vOn3KUX48-61" value="" style="ellipse;whiteSpace=wrap;html=1;aspect=fixed;fillColor=#f8cecc;strokeColor=#b85450;" parent="1" vertex="1">
          <mxGeometry x="520" y="780" width="40" height="40" as="geometry" />
        </mxCell>
        <mxCell id="1nDgUb3ths3vOn3KUX48-62" value="" style="ellipse;whiteSpace=wrap;html=1;aspect=fixed;" parent="1" vertex="1">
          <mxGeometry x="460" y="760" width="40" height="40" as="geometry" />
        </mxCell>
        <mxCell id="1nDgUb3ths3vOn3KUX48-63" value="" style="ellipse;whiteSpace=wrap;html=1;aspect=fixed;" parent="1" vertex="1">
          <mxGeometry x="600" y="700" width="40" height="40" as="geometry" />
        </mxCell>
        <mxCell id="1nDgUb3ths3vOn3KUX48-64" value="" style="ellipse;whiteSpace=wrap;html=1;aspect=fixed;fillColor=#dae8fc;strokeColor=#6c8ebf;" parent="1" vertex="1">
          <mxGeometry x="440" y="700" width="40" height="40" as="geometry" />
        </mxCell>
        <mxCell id="1nDgUb3ths3vOn3KUX48-65" value="" style="ellipse;whiteSpace=wrap;html=1;aspect=fixed;" parent="1" vertex="1">
          <mxGeometry x="680" y="640" width="160" height="160" as="geometry" />
        </mxCell>
        <mxCell id="1nDgUb3ths3vOn3KUX48-66" value="" style="ellipse;whiteSpace=wrap;html=1;aspect=fixed;fillColor=#dae8fc;strokeColor=#6c8ebf;" parent="1" vertex="1">
          <mxGeometry x="680" y="640" width="40" height="40" as="geometry" />
        </mxCell>
        <mxCell id="1nDgUb3ths3vOn3KUX48-67" value="" style="ellipse;whiteSpace=wrap;html=1;aspect=fixed;" parent="1" vertex="1">
          <mxGeometry x="740" y="620" width="40" height="40" as="geometry" />
        </mxCell>
        <mxCell id="1nDgUb3ths3vOn3KUX48-68" value="" style="ellipse;whiteSpace=wrap;html=1;aspect=fixed;" parent="1" vertex="1">
          <mxGeometry x="800" y="640" width="40" height="40" as="geometry" />
        </mxCell>
        <mxCell id="1nDgUb3ths3vOn3KUX48-69" value="" style="ellipse;whiteSpace=wrap;html=1;aspect=fixed;" parent="1" vertex="1">
          <mxGeometry x="800" y="760" width="40" height="40" as="geometry" />
        </mxCell>
        <mxCell id="1nDgUb3ths3vOn3KUX48-70" value="" style="ellipse;whiteSpace=wrap;html=1;aspect=fixed;" parent="1" vertex="1">
          <mxGeometry x="740" y="780" width="40" height="40" as="geometry" />
        </mxCell>
        <mxCell id="1nDgUb3ths3vOn3KUX48-71" value="" style="ellipse;whiteSpace=wrap;html=1;aspect=fixed;" parent="1" vertex="1">
          <mxGeometry x="680" y="760" width="40" height="40" as="geometry" />
        </mxCell>
        <mxCell id="1nDgUb3ths3vOn3KUX48-72" value="" style="ellipse;whiteSpace=wrap;html=1;aspect=fixed;" parent="1" vertex="1">
          <mxGeometry x="820" y="700" width="40" height="40" as="geometry" />
        </mxCell>
        <mxCell id="1nDgUb3ths3vOn3KUX48-73" value="" style="ellipse;whiteSpace=wrap;html=1;aspect=fixed;fillColor=#f8cecc;strokeColor=#b85450;" parent="1" vertex="1">
          <mxGeometry x="660" y="700" width="40" height="40" as="geometry" />
        </mxCell>
        <mxCell id="1nDgUb3ths3vOn3KUX48-74" value="" style="ellipse;whiteSpace=wrap;html=1;aspect=fixed;" parent="1" vertex="1">
          <mxGeometry x="560" y="880" width="160" height="160" as="geometry" />
        </mxCell>
        <mxCell id="1nDgUb3ths3vOn3KUX48-75" value="" style="ellipse;whiteSpace=wrap;html=1;aspect=fixed;" parent="1" vertex="1">
          <mxGeometry x="560" y="880" width="40" height="40" as="geometry" />
        </mxCell>
        <mxCell id="1nDgUb3ths3vOn3KUX48-76" value="" style="ellipse;whiteSpace=wrap;html=1;aspect=fixed;fillColor=#e1d5e7;strokeColor=#9673a6;" parent="1" vertex="1">
          <mxGeometry x="620" y="860" width="40" height="40" as="geometry" />
        </mxCell>
        <mxCell id="1nDgUb3ths3vOn3KUX48-77" value="" style="ellipse;whiteSpace=wrap;html=1;aspect=fixed;" parent="1" vertex="1">
          <mxGeometry x="680" y="880" width="40" height="40" as="geometry" />
        </mxCell>
        <mxCell id="1nDgUb3ths3vOn3KUX48-78" value="" style="ellipse;whiteSpace=wrap;html=1;aspect=fixed;" parent="1" vertex="1">
          <mxGeometry x="680" y="1000" width="40" height="40" as="geometry" />
        </mxCell>
        <mxCell id="1nDgUb3ths3vOn3KUX48-79" value="" style="ellipse;whiteSpace=wrap;html=1;aspect=fixed;" parent="1" vertex="1">
          <mxGeometry x="620" y="1020" width="40" height="40" as="geometry" />
        </mxCell>
        <mxCell id="1nDgUb3ths3vOn3KUX48-80" value="" style="ellipse;whiteSpace=wrap;html=1;aspect=fixed;" parent="1" vertex="1">
          <mxGeometry x="560" y="1000" width="40" height="40" as="geometry" />
        </mxCell>
        <mxCell id="1nDgUb3ths3vOn3KUX48-81" value="" style="ellipse;whiteSpace=wrap;html=1;aspect=fixed;" parent="1" vertex="1">
          <mxGeometry x="700" y="940" width="40" height="40" as="geometry" />
        </mxCell>
        <mxCell id="1nDgUb3ths3vOn3KUX48-82" value="" style="ellipse;whiteSpace=wrap;html=1;aspect=fixed;" parent="1" vertex="1">
          <mxGeometry x="540" y="940" width="40" height="40" as="geometry" />
        </mxCell>
        <mxCell id="1nDgUb3ths3vOn3KUX48-83" value="" style="group" parent="1" vertex="1" connectable="0">
          <mxGeometry x="560" y="150" width="200" height="200" as="geometry" />
        </mxCell>
        <mxCell id="1nDgUb3ths3vOn3KUX48-1" value="" style="ellipse;whiteSpace=wrap;html=1;aspect=fixed;" parent="1nDgUb3ths3vOn3KUX48-83" vertex="1">
          <mxGeometry x="20" y="20" width="160" height="160" as="geometry" />
        </mxCell>
        <mxCell id="1nDgUb3ths3vOn3KUX48-3" value="" style="ellipse;whiteSpace=wrap;html=1;aspect=fixed;" parent="1nDgUb3ths3vOn3KUX48-83" vertex="1">
          <mxGeometry x="20" y="20" width="40" height="40" as="geometry" />
        </mxCell>
        <mxCell id="1nDgUb3ths3vOn3KUX48-4" value="" style="ellipse;whiteSpace=wrap;html=1;aspect=fixed;fillColor=#fff2cc;strokeColor=#d6b656;" parent="1nDgUb3ths3vOn3KUX48-83" vertex="1">
          <mxGeometry x="80" width="40" height="40" as="geometry" />
        </mxCell>
        <mxCell id="1nDgUb3ths3vOn3KUX48-5" value="" style="ellipse;whiteSpace=wrap;html=1;aspect=fixed;" parent="1nDgUb3ths3vOn3KUX48-83" vertex="1">
          <mxGeometry x="140" y="20" width="40" height="40" as="geometry" />
        </mxCell>
        <mxCell id="1nDgUb3ths3vOn3KUX48-6" value="" style="ellipse;whiteSpace=wrap;html=1;aspect=fixed;" parent="1nDgUb3ths3vOn3KUX48-83" vertex="1">
          <mxGeometry x="140" y="140" width="40" height="40" as="geometry" />
        </mxCell>
        <mxCell id="1nDgUb3ths3vOn3KUX48-7" value="" style="ellipse;whiteSpace=wrap;html=1;aspect=fixed;" parent="1nDgUb3ths3vOn3KUX48-83" vertex="1">
          <mxGeometry x="80" y="160" width="40" height="40" as="geometry" />
        </mxCell>
        <mxCell id="1nDgUb3ths3vOn3KUX48-8" value="" style="ellipse;whiteSpace=wrap;html=1;aspect=fixed;" parent="1nDgUb3ths3vOn3KUX48-83" vertex="1">
          <mxGeometry x="20" y="140" width="40" height="40" as="geometry" />
        </mxCell>
        <mxCell id="1nDgUb3ths3vOn3KUX48-9" value="" style="ellipse;whiteSpace=wrap;html=1;aspect=fixed;" parent="1nDgUb3ths3vOn3KUX48-83" vertex="1">
          <mxGeometry x="160" y="80" width="40" height="40" as="geometry" />
        </mxCell>
        <mxCell id="1nDgUb3ths3vOn3KUX48-10" value="" style="ellipse;whiteSpace=wrap;html=1;aspect=fixed;" parent="1nDgUb3ths3vOn3KUX48-83" vertex="1">
          <mxGeometry y="80" width="40" height="40" as="geometry" />
        </mxCell>
      </root>
    </mxGraphModel>
  </diagram>
</mxfile>
